<svg width="400px" height="400px" xmlns="http://www.w3.org/2000/svg" version="1.1" xmlns:xlink="http://www.w3.org/1999/xlink">
<rect x="0" y="0" width="80" height="80" fill="#ffcc00" stroke="black" stroke-width="2"/>
<circle cx="40.0" cy="40.0" r="20.0" fill="#0000ff" stroke="black" stroke-width="2"/>
<rect x="80" y="0" width="80" height="80" fill="#ff00ff" stroke="black" stroke-width="2"/>
<circle cx="120.0" cy="40.0" r="20.0" fill="#00ff00" stroke="black" stroke-width="2"/>
<rect x="160" y="0" width="80" height="80" fill="#00ffff" stroke="black" stroke-width="2"/>
<circle cx="200.0" cy="40.0" r="20.0" fill="#00ff00" stroke="black" stroke-width="2"/>
<rect x="240" y="0" width="80" height="80" fill="#ff00ff" stroke="black" stroke-width="2"/>
<circle cx="280.0" cy="40.0" r="20.0" fill="#00ff00" stroke="black" stroke-width="2"/>
<rect x="320" y="0" width="80" height="80" fill="#0000ff" stroke="black" stroke-width="2"/>
<circle cx="360.0" cy="40.0" r="20.0" fill="#ffcc00" stroke="black" stroke-width="2"/>
<rect x="0" y="80" width="80" height="80" fill="#00ff00" stroke="black" stroke-width="2"/>
<circle cx="40.0" cy="120.0" r="20.0" fill="#0000ff" stroke="black" stroke-width="2"/>
<rect x="80" y="80" width="80" height="80" fill="#00ff00" stroke="black" stroke-width="2"/>
<circle cx="120.0" cy="120.0" r="20.0" fill="#ffcc00" stroke="black" stroke-width="2"/>
<rect x="160" y="80" width="80" height="80" fill="#00ffff" stroke="black" stroke-width="2"/>
<circle cx="200.0" cy="120.0" r="20.0" fill="#00ffff" stroke="black" stroke-width="2"/>
<rect x="240" y="80" width="80" height="80" fill="#ffcc00" stroke="black" stroke-width="2"/>
<circle cx="280.0" cy="120.0" r="20.0" fill="#00ffff" stroke="black" stroke-width="2"/>
<rect x="320" y="80" width="80" height="80" fill="#ffcc00" stroke="black" stroke-width="2"/>
<circle cx="360.0" cy="120.0" r="20.0" fill="#ffcc00" stroke="black" stroke-width="2"/>
<rect x="0" y="160" width="80" height="80" fill="#ff00ff" stroke="black" stroke-width="2"/>
<circle cx="40.0" cy="200.0" r="20.0" fill="#0000ff" stroke="black" stroke-width="2"/>
<rect x="80" y="160" width="80" height="80" fill="#00ffff" stroke="black" stroke-width="2"/>
<circle cx="120.0" cy="200.0" r="20.0" fill="#ff00ff" stroke="black" stroke-width="2"/>
<rect x="160" y="160" width="80" height="80" fill="#ff00ff" stroke="black" stroke-width="2"/>
<circle cx="200.0" cy="200.0" r="20.0" fill="#00ff00" stroke="black" stroke-width="2"/>
<rect x="240" y="160" width="80" height="80" fill="#ffcc00" stroke="black" stroke-width="2"/>
<circle cx="280.0" cy="200.0" r="20.0" fill="#ffcc00" stroke="black" stroke-width="2"/>
<rect x="320" y="160" width="80" height="80" fill="#ffcc00" stroke="black" stroke-width="2"/>
<circle cx="360.0" cy="200.0" r="20.0" fill="#0000ff" stroke="black" stroke-width="2"/>
<rect x="0" y="240" width="80" height="80" fill="#ffcc00" stroke="black" stroke-width="2"/>
<circle cx="40.0" cy="280.0" r="20.0" fill="#ff0000" stroke="black" stroke-width="2"/>
<rect x="80" y="240" width="80" height="80" fill="#ff0000" stroke="black" stroke-width="2"/>
<circle cx="120.0" cy="280.0" r="20.0" fill="#ffcc00" stroke="black" stroke-width="2"/>
<rect x="160" y="240" width="80" height="80" fill="#00ffff" stroke="black" stroke-width="2"/>
<circle cx="200.0" cy="280.0" r="20.0" fill="#ff0000" stroke="black" stroke-width="2"/>
<rect x="240" y="240" width="80" height="80" fill="#0000ff" stroke="black" stroke-width="2"/>
<circle cx="280.0" cy="280.0" r="20.0" fill="#0000ff" stroke="black" stroke-width="2"/>
<rect x="320" y="240" width="80" height="80" fill="#ff0000" stroke="black" stroke-width="2"/>
<circle cx="360.0" cy="280.0" r="20.0" fill="#ff00ff" stroke="black" stroke-width="2"/>
<rect x="0" y="320" width="80" height="80" fill="#ff0000" stroke="black" stroke-width="2"/>
<circle cx="40.0" cy="360.0" r="20.0" fill="#00ff00" stroke="black" stroke-width="2"/>
<rect x="80" y="320" width="80" height="80" fill="#ff0000" stroke="black" stroke-width="2"/>
<circle cx="120.0" cy="360.0" r="20.0" fill="#00ffff" stroke="black" stroke-width="2"/>
<rect x="160" y="320" width="80" height="80" fill="#ff00ff" stroke="black" stroke-width="2"/>
<circle cx="200.0" cy="360.0" r="20.0" fill="#ffcc00" stroke="black" stroke-width="2"/>
<rect x="240" y="320" width="80" height="80" fill="#ffcc00" stroke="black" stroke-width="2"/>
<circle cx="280.0" cy="360.0" r="20.0" fill="#ffcc00" stroke="black" stroke-width="2"/>
<rect x="320" y="320" width="80" height="80" fill="#ff00ff" stroke="black" stroke-width="2"/>
<circle cx="360.0" cy="360.0" r="20.0" fill="#ff0000" stroke="black" stroke-width="2"/>
</svg>
