<svg width="500px" height="500px" xmlns="http://www.w3.org/2000/svg" version="1.1" xmlns:xlink="http://www.w3.org/1999/xlink">
<line x1="50" y1="450" x2="450" y2="450" stroke="black" stroke-width="2"/>
<line x1="50" y1="50" x2="50" y2="450" stroke="black" stroke-width="2"/>
<text x="250.0" y="490" text-anchor="middle">X Axis</text>
<text x="10" y="250.0" text-anchor="middle" transform="rotate(-90,10,250.0)">Y Axis</text>
<line x1="50.0" y1="450" x2="50.0" y2="455" stroke="black"/>
<text x="50.0" y="470" text-anchor="middle">0.0</text>
<line x1="45" y1="450.0" x2="50" y2="450.0" stroke="black"/>
<text x="40" y="455.0" text-anchor="end">0.0</text>
<line x1="130.0" y1="450" x2="130.0" y2="455" stroke="black"/>
<text x="130.0" y="470" text-anchor="middle">20.0</text>
<line x1="45" y1="370.0" x2="50" y2="370.0" stroke="black"/>
<text x="40" y="375.0" text-anchor="end">20.0</text>
<line x1="210.0" y1="450" x2="210.0" y2="455" stroke="black"/>
<text x="210.0" y="470" text-anchor="middle">40.0</text>
<line x1="45" y1="290.0" x2="50" y2="290.0" stroke="black"/>
<text x="40" y="295.0" text-anchor="end">40.0</text>
<line x1="290.0" y1="450" x2="290.0" y2="455" stroke="black"/>
<text x="290.0" y="470" text-anchor="middle">60.0</text>
<line x1="45" y1="210.0" x2="50" y2="210.0" stroke="black"/>
<text x="40" y="215.0" text-anchor="end">60.0</text>
<line x1="370.0" y1="450" x2="370.0" y2="455" stroke="black"/>
<text x="370.0" y="470" text-anchor="middle">80.0</text>
<line x1="45" y1="130.0" x2="50" y2="130.0" stroke="black"/>
<text x="40" y="135.0" text-anchor="end">80.0</text>
<line x1="450.0" y1="450" x2="450.0" y2="455" stroke="black"/>
<text x="450.0" y="470" text-anchor="middle">100.0</text>
<line x1="45" y1="50.0" x2="50" y2="50.0" stroke="black"/>
<text x="40" y="55.0" text-anchor="end">100.0</text>
<circle cx="228.8" cy="70.14" r="5" fill="blue" stroke="black" stroke-width="1"/>
<circle cx="146.04" cy="327.87" r="5" fill="blue" stroke="black" stroke-width="1"/>
<circle cx="312.6" cy="206.79" r="5" fill="blue" stroke="black" stroke-width="1"/>
<circle cx="303.35" cy="97.55" r="5" fill="blue" stroke="black" stroke-width="1"/>
<circle cx="259.94" cy="252.22" r="5" fill="blue" stroke="black" stroke-width="1"/>
<circle cx="367.48" cy="71.15" r="5" fill="blue" stroke="black" stroke-width="1"/>
<circle cx="414.92" cy="247.75" r="5" fill="blue" stroke="black" stroke-width="1"/>
<circle cx="411.97" cy="222.31" r="5" fill="blue" stroke="black" stroke-width="1"/>
<circle cx="396.5" cy="264.19" r="5" fill="blue" stroke="black" stroke-width="1"/>
<circle cx="222.71" cy="256.09" r="5" fill="blue" stroke="black" stroke-width="1"/>
<circle cx="221.2" cy="69.37" r="5" fill="blue" stroke="black" stroke-width="1"/>
<circle cx="353.56" cy="50.11" r="5" fill="blue" stroke="black" stroke-width="1"/>
<circle cx="291.16" cy="436.91" r="5" fill="blue" stroke="black" stroke-width="1"/>
<circle cx="243.18" cy="52.57" r="5" fill="blue" stroke="black" stroke-width="1"/>
<circle cx="204.8" cy="287.3" r="5" fill="blue" stroke="black" stroke-width="1"/>
<circle cx="303.75" cy="265.96" r="5" fill="blue" stroke="black" stroke-width="1"/>
<circle cx="324.74" cy="252.66" r="5" fill="blue" stroke="black" stroke-width="1"/>
<circle cx="234.15" cy="383.33" r="5" fill="blue" stroke="black" stroke-width="1"/>
<circle cx="54.24" cy="139.39" r="5" fill="blue" stroke="black" stroke-width="1"/>
<circle cx="110.5" cy="354.68" r="5" fill="blue" stroke="black" stroke-width="1"/>
<circle cx="121.81" cy="373.25" r="5" fill="blue" stroke="black" stroke-width="1"/>
<circle cx="272.58" cy="307.74" r="5" fill="blue" stroke="black" stroke-width="1"/>
<circle cx="182.99" cy="170.22" r="5" fill="blue" stroke="black" stroke-width="1"/>
<circle cx="264.41" cy="226.77" r="5" fill="blue" stroke="black" stroke-width="1"/>
<circle cx="447.42" cy="59.54" r="5" fill="blue" stroke="black" stroke-width="1"/>
<circle cx="263.27" cy="109.69" r="5" fill="blue" stroke="black" stroke-width="1"/>
<circle cx="95.03" cy="67.25" r="5" fill="blue" stroke="black" stroke-width="1"/>
<circle cx="294.98" cy="398.06" r="5" fill="blue" stroke="black" stroke-width="1"/>
<circle cx="237.08" cy="290.11" r="5" fill="blue" stroke="black" stroke-width="1"/>
<circle cx="250.72" cy="71.87" r="5" fill="blue" stroke="black" stroke-width="1"/>
<circle cx="252.3" cy="345.34" r="5" fill="blue" stroke="black" stroke-width="1"/>
<circle cx="379.36" cy="141.8" r="5" fill="blue" stroke="black" stroke-width="1"/>
<circle cx="302.0" cy="78.96" r="5" fill="blue" stroke="black" stroke-width="1"/>
<circle cx="232.43" cy="272.34" r="5" fill="blue" stroke="black" stroke-width="1"/>
<circle cx="231.82" cy="341.76" r="5" fill="blue" stroke="black" stroke-width="1"/>
<circle cx="427.87" cy="91.27" r="5" fill="blue" stroke="black" stroke-width="1"/>
<circle cx="448.02" cy="277.7" r="5" fill="blue" stroke="black" stroke-width="1"/>
<circle cx="438.58" cy="382.23" r="5" fill="blue" stroke="black" stroke-width="1"/>
<circle cx="316.5" cy="372.77" r="5" fill="blue" stroke="black" stroke-width="1"/>
<circle cx="310.03" cy="201.43" r="5" fill="blue" stroke="black" stroke-width="1"/>
<circle cx="295.72" cy="390.03" r="5" fill="blue" stroke="black" stroke-width="1"/>
<circle cx="85.7" cy="141.59" r="5" fill="blue" stroke="black" stroke-width="1"/>
<circle cx="323.76" cy="228.11" r="5" fill="blue" stroke="black" stroke-width="1"/>
<circle cx="192.83" cy="64.6" r="5" fill="blue" stroke="black" stroke-width="1"/>
<circle cx="305.37" cy="104.94" r="5" fill="blue" stroke="black" stroke-width="1"/>
<circle cx="252.8" cy="242.61" r="5" fill="blue" stroke="black" stroke-width="1"/>
<circle cx="375.62" cy="213.39" r="5" fill="blue" stroke="black" stroke-width="1"/>
<circle cx="106.16" cy="73.17" r="5" fill="blue" stroke="black" stroke-width="1"/>
<circle cx="424.79" cy="301.7" r="5" fill="blue" stroke="black" stroke-width="1"/>
<circle cx="203.44" cy="183.66" r="5" fill="blue" stroke="black" stroke-width="1"/>
</svg>
